<svg xmlns="http://www.w3.org/2000/svg" width="11.402" height="20.41" viewBox="0 0 11.402 20.41">
  <g id="delivery" transform="translate(-4 -3)">
    <path id="Path_185" data-name="Path 185" d="M7.47,42.625a.3.3,0,0,1-.262.166H7.2a.3.3,0,0,1-.262-.155L5.546,40.128l-1.487.457A1.493,1.493,0,0,0,3,42.02v4.372H4.5v-3.6h.6v3.6H8.4V43.77l-.8-1.4Z" transform="translate(1 -22.982)" fill="#00000"/>
    <path id="Path_275" data-name="Path 275" d="M3.932,42.625a.3.3,0,0,0,.262.166H4.2a.3.3,0,0,0,.262-.155l1.393-2.508,1.487.457A1.493,1.493,0,0,1,8.4,42.02v4.372H6.9v-3.6H6.3v3.6H3V43.77l.8-1.4Z" transform="translate(7 -22.982)" fill="#00000"/>
    <path id="Path_186" data-name="Path 186" d="M6.613,23.878c0-.083-.013-.165-.013-.249V22.184a.895.895,0,0,0,.013,1.694Z" transform="translate(-1.1 -12.326)" fill="#00000"/>
    <path id="Path_187" data-name="Path 187" d="M15.256,39.576a4.169,4.169,0,0,1-1.37-.509l-.45.138,1.055,1.9L14.545,41h0Z" transform="translate(-6.701 -23.127)" fill="#00000"/>
    <path id="Path_188" data-name="Path 188" d="M25.263,41.1l1.055-1.9-.45-.138a4.166,4.166,0,0,1-1.37.509l.71,1.42h0Z" transform="translate(-13.804 -23.127)" fill="#00000"/>
    <path id="Path_189" data-name="Path 189" d="M20.292,40.981c-.038,0-.074.006-.112.006s-.074,0-.112-.006L19.4,42.318l.78,1.365.78-1.365Z" transform="translate(-10.545 -24.254)" fill="#00000"/>
    <path id="Path_191" data-name="Path 191" d="M13.6,23.605A3.605,3.605,0,0,0,17.2,20V17.188l-.766.383a.3.3,0,0,1-.229.016l-.947-.316a5.275,5.275,0,0,0-3.319,0L11,17.587a.3.3,0,0,1-.229-.016L10,17.188V20A3.605,3.605,0,0,0,13.6,23.605Zm1.651-5.1a.45.45,0,1,1-.45.45A.451.451,0,0,1,15.252,18.5Zm-1.951.6h.6v1.2h-.6Zm-1.35-.6a.45.45,0,1,1-.45.45A.451.451,0,0,1,11.951,18.5Zm.15,2.4a1.5,1.5,0,1,0,3,0h.6a2.1,2.1,0,1,1-4.2,0Z" transform="translate(-3.899 -8.633)" fill="#00000"/>
    <path id="Path_192" data-name="Path 192" d="M11.752,13.905a5.875,5.875,0,0,1,3.7,0l.829.276.923-.462v-.115c0-.023,0-.044,0-.067l-.715-.179a11.955,11.955,0,0,0-5.767,0L10,13.538c0,.022,0,.044,0,.067v.115l.923.462Z" transform="translate(-3.899 -6.448)" fill="#00000"/>
    <path id="Path_193" data-name="Path 193" d="M16.793,5.774l.5.125a3.6,3.6,0,0,0-7.063,0l.5-.125a12.535,12.535,0,0,1,6.058,0Z" transform="translate(-4.062 0)" fill="#00000"/>
    <path id="Path_195" data-name="Path 195" d="M35.971,22.184v1.445c0,.084-.008.166-.013.249a.895.895,0,0,0,.013-1.694Z" transform="translate(-22.298 -12.326)" fill="#00000"/>
  </g>
</svg>
