<svg id="Group_2" data-name="Group 2" xmlns="http://www.w3.org/2000/svg" width="14.716" height="14.716" viewBox="0 0 14.716 14.716">
  <g id="Group_1" data-name="Group 1">
    <path id="Path_1" data-name="Path 1" d="M13.081,0H1.635A1.635,1.635,0,0,0,0,1.635v3.27H1.635V1.635H13.081V13.081H1.635V9.811H0v3.27a1.635,1.635,0,0,0,1.635,1.635H13.081a1.635,1.635,0,0,0,1.635-1.635V1.635A1.635,1.635,0,0,0,13.081,0Z"/>
    <path id="Path_2" data-name="Path 2" d="M5.792,92.352l1.157,1.157,4.088-4.088L6.949,85.333,5.792,86.49,7.906,88.6H0v1.635H7.906Z" transform="translate(0 -82.063)"/>
  </g>
</svg>
