<svg xmlns="http://www.w3.org/2000/svg" width="17.445" height="21.819" viewBox="0 0 17.445 21.819">
  <g id="Icon_ionic-ios-notifications" data-name="Icon ionic-ios-notifications" transform="translate(-6.761 -3.93)">
    <path id="Path_355" data-name="Path 355" d="M17.232,31.226c1.7,0,2.623-1.2,2.623-2.89H14.6A2.572,2.572,0,0,0,17.232,31.226Z" transform="translate(-1.76 -5.477)"/>
    <path id="Path_356" data-name="Path 356" d="M23.985,20.089c-.84-1.107-2.492-1.756-2.492-6.713,0-5.088-2.247-7.133-4.341-7.624-.2-.049-.338-.115-.338-.322V5.272a1.331,1.331,0,1,0-2.661,0V5.43c0,.2-.142.273-.338.322-2.1.5-4.341,2.536-4.341,7.624,0,4.957-1.652,5.6-2.492,6.713a1.082,1.082,0,0,0,.867,1.734H23.123A1.083,1.083,0,0,0,23.985,20.089Z" transform="translate(0 0)"/>
  </g>
</svg>
