<svg xmlns="http://www.w3.org/2000/svg" width="16.297" height="12.1" viewBox="0 0 16.297 12.1">
  <g id="icon" transform="translate(0 -55.239)">
    <g id="Group_45" data-name="Group 45" transform="translate(0 55.239)">
      <path id="Path_44" data-name="Path 44" d="M145.393,190.315a.611.611,0,0,0,0-1.221l-2.766-2.034,2.155,2.683A.612.612,0,0,0,145.393,190.315Z" transform="translate(-137.077 -181.879)" fill="#00000"/>
      <rect id="Rectangle_3" data-name="Rectangle 3" width="6.096" height="1.447" transform="translate(5.101 10.653)" fill="#00000"/>
      <path id="Path_45" data-name="Path 45" d="M13.911,57.626A8.151,8.151,0,0,0,1.019,67.339H2.542L3.656,66.7l-.492-.852-1.432.827A7.166,7.166,0,0,1,.94,63.388c0-.209.009-.416.027-.621l1.708.3.171-.969-1.728-.3a7.206,7.206,0,0,1,1.966-3.531l1.171,1.4.754-.632L3.829,57.62A7.169,7.169,0,0,1,7.657,56.2v1.866h.984V56.2a7.17,7.17,0,0,1,3.828,1.424l-1.18,1.406.754.632,1.171-1.4a7.207,7.207,0,0,1,1.966,3.531l-1.728.3.171.969,1.708-.3c.018.2.027.412.027.621a7.164,7.164,0,0,1-.792,3.283l-1.432-.827-.492.852,1.114.643h1.523a8.157,8.157,0,0,0-1.368-9.713Z" transform="translate(0 -55.239)" fill="#00000"/>
    </g>
  </g>
</svg>
