<svg id="truck" xmlns="http://www.w3.org/2000/svg" width="22.053" height="12.129" viewBox="0 0 22.053 12.129">
  <g id="Group_4" data-name="Group 4" transform="translate(0 2.573)">
    <g id="Group_3" data-name="Group 3" transform="translate(0 0)">
      <path id="Path_3" data-name="Path 3" d="M352.032,167.526l1.47-3.308a.368.368,0,0,1,.336-.218h3.676a.368.368,0,0,1,.368.368v7.351a.368.368,0,0,1-.368.368h-.735a1.47,1.47,0,0,1-2.94,0h-1.47a.368.368,0,0,1-.368-.368v-4.043A.368.368,0,0,1,352.032,167.526Zm1.392-1.321-.49,1.1h1.272v-1.1Zm3.723,0h-.735v1.1h.735Zm-1.838,6.616a.735.735,0,1,0-.735-.735A.735.735,0,0,0,355.308,172.821Zm-2.573-4.043h.735v.735h-.735v1.838h1.307a1.457,1.457,0,0,1,2.532,0h.572v-3.308h-1.1a.368.368,0,0,1-.368-.368v-1.838a.368.368,0,0,1,.368-.368h1.1v-.735h-3.069l-.326.735h.823a.368.368,0,0,1,.368.368v1.838a.368.368,0,0,1-.368.368h-1.838Z" transform="translate(-352 -164)" fill="#00000"/>
    </g>
  </g>
  <g id="Group_6" data-name="Group 6" transform="translate(6.616 8.821)">
    <g id="Group_5" data-name="Group 5" transform="translate(0)">
      <path id="Path_4" data-name="Path 4" d="M256.368,300h2.94a.368.368,0,0,1,.368.368v1.47a.368.368,0,0,1-.368.368h-2.94a.368.368,0,0,1-.368-.368v-1.47A.368.368,0,0,1,256.368,300Zm.368,1.47h2.205v-.735h-2.205Z" transform="translate(-256 -300)" fill="#00000"/>
    </g>
  </g>
  <g id="Group_8" data-name="Group 8" transform="translate(11.027 8.821)">
    <g id="Group_7" data-name="Group 7">
      <path id="Path_5" data-name="Path 5" d="M16.368,300h9.556a.368.368,0,0,1,.368.368v1.47a.368.368,0,0,1-.368.368H24.4a1.463,1.463,0,0,1-2.836,0h-.839a1.463,1.463,0,0,1-2.836,0H16.368a.368.368,0,0,1-.368-.368v-1.47A.368.368,0,0,1,16.368,300Zm8.034,1.47h1.155v-.735H23.946A1.462,1.462,0,0,1,24.4,301.47Zm-1.418,1.1a.735.735,0,1,0-.735-.735A.735.735,0,0,0,22.984,302.573Zm-2.258-1.1h.839a1.462,1.462,0,0,1,.456-.735H20.27A1.462,1.462,0,0,1,20.726,301.47Zm-1.418,1.1a.735.735,0,1,0-.735-.735A.735.735,0,0,0,19.308,302.573Zm-2.573-1.1H17.89a1.462,1.462,0,0,1,.456-.735H16.735Z" transform="translate(-16 -300)" fill="#00000"/>
    </g>
  </g>
  <g id="Group_10" data-name="Group 10" transform="translate(6.616)">
    <g id="Group_9" data-name="Group 9" transform="translate(0 0)">
      <path id="Path_6" data-name="Path 6" d="M2.158,109.47H6.248v-.735H5.513V108H9.924v.735H9.189v.735H13.28a2.16,2.16,0,0,1,2.158,2.158v2.3a2.16,2.16,0,0,1-2.158,2.158H2.158A2.16,2.16,0,0,1,0,113.929v-2.3A2.16,2.16,0,0,1,2.158,109.47Zm6.3-.735H6.984v.735h1.47Zm4.778,6.616h.048a1.424,1.424,0,0,0,1.422-1.422v-2.3a1.424,1.424,0,0,0-1.422-1.422h-.048Zm-2.205,0H12.5v-.735h-1.47Zm0-1.47H12.5v-.735h-1.47Zm0-1.47H12.5v-.735h-1.47Zm0-1.47H12.5v-.735h-1.47ZM.735,113.929a1.424,1.424,0,0,0,1.422,1.422h.415V110.94h.735v4.411h6.984v-5.146H2.158a1.424,1.424,0,0,0-1.422,1.422v2.3Z" transform="translate(0 -108)" fill="#00000"/>
    </g>
  </g>
</svg>
