<svg id="user_2_" data-name="user (2)" xmlns="http://www.w3.org/2000/svg" width="20.098" height="20.098" viewBox="0 0 20.098 20.098">
  <g id="Group_292" data-name="Group 292">
    <path id="Path_209" data-name="Path 209" d="M10.049,0A10.049,10.049,0,1,0,20.1,10.049,10.046,10.046,0,0,0,10.049,0Zm0,3.015A3.015,3.015,0,1,1,7.034,6.029,3.017,3.017,0,0,1,10.049,3.015Zm0,14.269A7.236,7.236,0,0,1,4.02,14.048c.025-1.995,4.025-3.1,6.029-3.1s6,1.1,6.029,3.1A7.236,7.236,0,0,1,10.049,17.284Z"/>
  </g>
</svg>
